# xmcd
#
# Track frame offsets:
#	150
#	12295
#	27337
#	38387
#	53152
#	66437
#	79985
#	92712
#	100327
#	112475
#	125172
#	140500
#	150062
#	167012
#	197790
#
# Disc length: 2777 seconds
#
# Revision: 1329088568
# Processed by: cddbd v1.5.2PL0 Copyright (c) Steve Scherf et al.
# Submitted via: EZCDAudioConverter 2.1.7.1
#
DISCID=ca0ad70f
DTITLE=Siegel Schwall Band - The Complete Vanguard Recordings And More [CD1
DTITLE=)
DYEAR=2001
DGENRE=Blues
TTITLE0=Howlin' For My Darlin'
TTITLE1=I've Had All I Can Take (Instrumental)
TTITLE2=Down In The Bottom
TTITLE3=I Have Had All I Can Take
TTITLE4=Boot Hill
TTITLE5=When I Get The Time
TTITLE6=I've Got To Go Now
TTITLE7=Mama/Papa
TTITLE8=I'll Be The Man
TTITLE9=Little Babe
TTITLE10=Going To New York
TTITLE11=Mary
TTITLE12=So Glad You're Mine
TTITLE13=Hoochie Coochie Man
TTITLE14=Break Song
EXTD=
EXTT0=
EXTT1=
EXTT2=
EXTT3=
EXTT4=
EXTT5=
EXTT6=
EXTT7=
EXTT8=
EXTT9=
EXTT10=
EXTT11=
EXTT12=
EXTT13=
EXTT14=
PLAYORDER=
